<svg id="Layer_1" data-name="Layer 1" xmlns="http://www.w3.org/2000/svg" xmlns:xlink="http://www.w3.org/1999/xlink" viewBox="0 0 338.3 172.4"><defs><style>.cls-1{fill:#96c23d;}.cls-2{fill:#009049;}.cls-3{fill:#dedfe1;}.cls-4{fill:url(#linear-gradient);}.cls-5{fill:url(#linear-gradient-2);}.cls-6{fill:url(#linear-gradient-3);}.cls-7{fill:#f3f2f4;}.cls-8{fill:#646668;}.cls-9{fill:url(#linear-gradient-4);}.cls-10{fill:url(#linear-gradient-5);}.cls-11{fill:url(#linear-gradient-6);}.cls-12{fill:url(#linear-gradient-7);}</style><linearGradient id="linear-gradient" x1="178.96" y1="104.1" x2="218.2" y2="63.16" gradientUnits="userSpaceOnUse"><stop offset="0.05" stop-color="#aaadb2"/><stop offset="0.83" stop-color="#abacac"/></linearGradient><linearGradient id="linear-gradient-2" x1="74.13" y1="115.84" x2="123.28" y2="64.55" gradientUnits="userSpaceOnUse"><stop offset="0.05" stop-color="#aba9ae"/><stop offset="0.83" stop-color="#9fa0a3"/><stop offset="1" stop-color="#9c9ea0"/></linearGradient><linearGradient id="linear-gradient-3" x1="127.93" y1="69.06" x2="219.81" y2="69.06" gradientUnits="userSpaceOnUse"><stop offset="0" stop-color="#0074ac"/><stop offset="0.83" stop-color="#2f2842"/></linearGradient><linearGradient id="linear-gradient-4" x1="462.94" y1="23.62" x2="483.09" y2="23.62" gradientTransform="matrix(-1, -0.07, -0.07, 1, 634.37, 31.01)" gradientUnits="userSpaceOnUse"><stop offset="0" stop-color="#006b93"/><stop offset="0.87" stop-color="#0090b4"/></linearGradient><linearGradient id="linear-gradient-5" x1="462.54" y1="29.85" x2="484.11" y2="29.85" xlink:href="#linear-gradient-4"/><linearGradient id="linear-gradient-6" x1="7.15" y1="147.75" x2="338.89" y2="147.75" gradientUnits="userSpaceOnUse"><stop offset="0" stop-color="#0083b6"/><stop offset="0.87" stop-color="#2d3b57"/></linearGradient><linearGradient id="linear-gradient-7" x1="79.07" y1="144.89" x2="345.42" y2="144.89" xlink:href="#linear-gradient-6"/></defs><title>Amin-Logo</title><circle class="cls-1" cx="66.3" cy="84.4" r="17.3"/><circle class="cls-2" cx="44.7" cy="100.9" r="8.4"/><circle class="cls-2" cx="90.8" cy="63.8" r="13.7"/><circle class="cls-1" cx="302" cy="90.7" r="14.1"/><circle class="cls-1" cx="304.7" cy="66" r="9.1"/><circle class="cls-2" cx="276.8" cy="71.4" r="17.3"/><path class="cls-3" d="M296.9,126.5,227,54.1l-47.8,50.4L135.1,55.8l-51,60.4L66,139.1l24.4-6.3,43.7-9.7,89.6-2.8,77.7,12.2Z" transform="translate(-7.2 -6.9)"/><polygon class="cls-4" points="227.3 55.8 173.2 118.7 173.2 101.7 219.8 52.9 227.3 55.8"/><polygon class="cls-5" points="132.7 59 71.9 129 62.1 129.6 127.9 48.9 132.7 59"/><polygon class="cls-6" points="219.8 41.6 201.1 56.2 167.2 51.9 167.2 41.6 158.6 41.6 158.6 56.2 152.4 48.9 127.9 44.3 173.2 96.5 219.8 41.6"/><polygon class="cls-7" points="219.8 41.6 302 127.7 288.7 125.9 219.8 53.7 173.1 109 127.9 53.8 62.1 129.6 60.3 129 127.9 44.3 173.2 96.5 219.8 41.6"/><path class="cls-8" d="M218.9,101.1a10.7,10.7,0,0,1,21.3,0" transform="translate(-7.2 -6.9)"/><rect class="cls-8" x="211.7" y="95.5" width="9.7" height="11.06"/><rect class="cls-8" x="223.4" y="95.7" width="9.7" height="11.06"/><path class="cls-8" d="M124.4,100.8a10.7,10.7,0,1,1,21.3,0" transform="translate(-7.2 -6.9)"/><rect class="cls-8" x="117.2" y="95.2" width="9.7" height="11.06"/><rect class="cls-8" x="129" y="95.4" width="9.7" height="11.06"/><path class="cls-9" d="M151.8,6.9a35.2,35.2,0,0,0,9.9,15.5c7.9,7.4,8.1,18,8.1,18s-4.1-8.8-10-14.4c-3.3-3-7-7.6-7.8-11.3S151.8,6.9,151.8,6.9Z" transform="translate(-7.2 -6.9)"/><path class="cls-10" d="M150.4,13.5A34.3,34.3,0,0,0,160.2,29a34.2,34.2,0,0,1,9.6,17.3,103,103,0,0,0-11.5-13.7c-3.3-3-6.9-7.7-7.7-11.3S150.4,13.5,150.4,13.5Z" transform="translate(-7.2 -6.9)"/><path class="cls-11" d="M7.2,179.3C34,140,149.6,126.7,188.8,124.6c36.4-2,70.7,2,84.7,4.6s65.4,14.7,65.4,14.7-86.4-34.4-174.2-26.5c-57.7,5.2-109,17-137.3,38.3C12.7,166.7,7.2,179.3,7.2,179.3Z" transform="translate(-7.2 -6.9)"/><path class="cls-12" d="M79.1,160.4s21.8-12.7,57.5-21.8a310.6,310.6,0,0,1,62.8-8.9c26.9-.9,59,.2,85.1,4.2a372,372,0,0,1,60.9,14.6,610.2,610.2,0,0,0-81.5-11.4c-44.6-3.1-73.2-3.6-119.2,5.2C122.5,146.5,79.1,160.4,79.1,160.4Z" transform="translate(-7.2 -6.9)"/><path class="cls-8" d="M197.2,18.8s6.5,1,10.3,4.6,5.7,9.5,5.7,9.5,6.8-4.4,11.4-4.5c8.6-.3,10.7,1.9,10.7,1.9a14.6,14.6,0,0,0-9.4-6.3c-3.5-.7-9.6,2.9-9.6,2.9s-3.3-6.6-6.7-8.1C204.6,16.7,197.2,18.8,197.2,18.8Z" transform="translate(-7.2 -6.9)"/><path class="cls-8" d="M180.3,29s3.9.6,6.1,2.7a18.3,18.3,0,0,1,3.5,5.7s4-2.6,6.7-2.7c5.1-.2,6.4,1.1,6.4,1.1a9.1,9.1,0,0,0-5.6-3.7c-2.1-.4-5.7,1.7-5.7,1.7s-2-3.9-4-4.8S180.3,29,180.3,29Z" transform="translate(-7.2 -6.9)"/></svg>