<?xml version="1.0" encoding="UTF-8"?>
<svg width="33px" height="17px" viewBox="0 0 33 17" version="1.1" xmlns="http://www.w3.org/2000/svg" xmlns:xlink="http://www.w3.org/1999/xlink">
    <!-- Generator: Sketch 55.2 (78181) - https://sketchapp.com -->
    <title>arrow-btn</title>
    <desc>Created with Sketch.</desc>
    <g id="Page-1" stroke="none" stroke-width="1" fill="none" fill-rule="evenodd">
        <g id="Amlak-UI" transform="translate(-895.000000, -2277.000000)" fill="#FFFFFF">
            <g id="section-2" transform="translate(523.000000, 1678.000000)">
                <g id="arrow-btn" transform="translate(372.000000, 599.000000)">
                    <path d="M10.2638231,15.7828674 C10.9813721,15.0665929 11.0068623,13.8774752 10.2905878,13.1612007 L6.10764661,8.97825953 C5.71509759,8.58571051 5.71509759,7.94973012 6.10764661,7.55845561 L10.2905878,3.37551443 C11.0068623,2.65923992 10.9813721,1.47012227 10.2638231,0.753847765 C9.54754857,0.036298745 8.38519563,0.036298745 7.66764661,0.753847765 L0.863038765,7.55845561 C0.470489745,7.94973012 0.470489745,8.58571051 0.863038765,8.97825953 L7.66764661,15.7828674 C8.38519563,16.5004164 9.54754857,16.5004164 10.2638231,15.7828674" id="Path"></path>
                    <path d="M22.7807839,15.7828674 C22.0632348,15.0665929 22.0377446,13.8774752 22.7540192,13.1612007 L26.9369603,8.97825953 C27.3295094,8.58571051 27.3295094,7.94973012 26.9369603,7.55845561 L22.7540192,3.37551443 C22.0377446,2.65923992 22.0632348,1.47012227 22.7807839,0.753847765 C23.4970584,0.036298745 24.6594113,0.036298745 25.3769603,0.753847765 L32.1815682,7.55845561 C32.5741172,7.94973012 32.5741172,8.58571051 32.1815682,8.97825953 L25.3769603,15.7828674 C24.6594113,16.5004164 23.4970584,16.5004164 22.7807839,15.7828674" id="Fill-67"></path>
                    <path d="M18.7189211,8.26580855 C18.7189211,9.47022031 17.7426466,10.4464948 16.5395094,10.4464948 C15.3350976,10.4464948 14.3588231,9.47022031 14.3588231,8.26580855 C14.3588231,7.06139678 15.3350976,6.08639678 16.5395094,6.08639678 C17.7426466,6.08639678 18.7189211,7.06139678 18.7189211,8.26580855" id="Fill-70"></path>
                    <path d="M23.7850976,8.26835757 C23.7850976,9.29178894 22.9553917,10.1214948 21.9306858,10.1214948 C20.9072545,10.1214948 20.0775486,9.29178894 20.0775486,8.26835757 C20.0775486,7.2449262 20.9072545,6.4139458 21.9306858,6.4139458 C22.9553917,6.4139458 23.7850976,7.2449262 23.7850976,8.26835757" id="Fill-71" opacity="0.8"></path>
                    <path d="M13.0001956,8.26835757 C13.0001956,9.29178894 12.1704897,10.1214948 11.1457839,10.1214948 C10.1223525,10.1214948 9.29264661,9.29178894 9.29264661,8.26835757 C9.29264661,7.2449262 10.1223525,6.4139458 11.1457839,6.4139458 C12.1704897,6.4139458 13.0001956,7.2449262 13.0001956,8.26835757" id="Fill-72"></path>
                </g>
            </g>
        </g>
    </g>
</svg>