<?xml version="1.0" encoding="utf-8"?>
<!-- Generator: Adobe Illustrator 23.0.6, SVG Export Plug-In . SVG Version: 6.00 Build 0)  -->
<svg version="1.1" id="Layer_1" xmlns="http://www.w3.org/2000/svg" xmlns:xlink="http://www.w3.org/1999/xlink" x="0px" y="0px"
	 viewBox="0 0 60 45" style="enable-background:new 0 0 60 45;" xml:space="preserve">
<style type="text/css">
	.st0{fill:#323232;}
	.st1{fill:#35C115;}
</style>
<g id="Page-1">
	<g id="Amlak-UI" transform="translate(-910.000000, -1395.000000)">
		<g id="section-1" transform="translate(165.000000, 1257.000000)">
			<g id="Group-4" transform="translate(745.000000, 138.000000)">
				<g>
					<g>
						<path class="st0" d="M30.3,11.3c-1.5-1.7-3.2-2.6-5.3-2.6c-2.1,0-3.9,0.9-5.3,2.6s-2.2,3.8-2.2,6.2s0.7,4.5,2.2,6.2
							c0.3,0.3,0.5,0.6,0.8,0.8c0.1-1,0.4-1.9,0.9-2.7c-0.9-1.2-1.4-2.7-1.4-4.4c0-1.7,0.5-3.2,1.5-4.4s2.2-1.8,3.5-1.8
							s2.5,0.6,3.5,1.8s1.5,2.7,1.5,4.4c0,0.5-0.1,1-0.1,1.4c0.7-0.4,1.6-0.7,2.6-0.7c0-0.2,0-0.5,0-0.7
							C32.5,15.1,31.8,13,30.3,11.3z"/>
						<path class="st0" d="M48.5,1.7C45.8,0.6,42.7,0,39.5,0c-3.2,0-8,0.8-14.5,2.4S13.8,4.8,10.5,4.8c-2,0-3.8-0.2-5.5-0.6
							S2.6,3.7,2.5,3.7c-0.7,0-1.3,0.2-1.8,0.7S0,5.4,0,6.2v24.8c0,1.1,0.5,1.9,1.5,2.3c2.8,1.1,5.8,1.7,9.1,1.7
							c2.5,0,6-0.5,10.5-1.5c-0.2-0.8-0.2-1.7,0-2.6c-1.9,0.4-3.6,0.8-4.9,1c-2.1,0.4-4.1,0.5-6.1,0.5c-0.1-2.1-0.8-3.8-2.3-5.2
							s-3.2-2.1-5.2-2.2l0.1-10.6c1.9-0.1,3.6-0.8,5-2.1s2.2-3,2.3-5c1.7,0.1,3.6-0.1,5.6-0.4s3.6-0.6,4.8-0.8s2.9-0.7,5.2-1.3
							C29.1,4,31.8,3.4,33.8,3s4.1-0.5,6.2-0.5c0,2.1,0.7,3.9,2.2,5.3s3.2,2.2,5.3,2.3l0,0.8c0.1,0,0.2,0,0.3,0
							c0.9,0,1.6,0.2,2.2,0.5V4.1C50,2.9,49.5,2.1,48.5,1.7z M5.9,29c1,0.9,1.5,2,1.6,3.3c-1.8-0.3-3.5-0.7-5-1.3v-3.3
							C3.8,27.7,4.9,28.1,5.9,29z M5.9,10.5C5,11.4,3.9,11.9,2.6,12V6.2c1.5,0.5,3.2,0.8,4.9,1C7.4,8.5,6.9,9.6,5.9,10.5z M47.5,7.5
							C46.1,7.5,45,7,44,6.1s-1.5-2-1.5-3.4c1.8,0.3,3.5,0.7,5,1.3V7.5z"/>
					</g>
					<g>
						<path class="st1" d="M48.5,1.7C45.8,0.6,42.7,0,39.5,0c-3.2,0-8,0.8-14.5,2.4S13.8,4.8,10.5,4.8c-2,0-3.8-0.2-5.5-0.6
							S2.6,3.7,2.5,3.7c-0.7,0-1.3,0.2-1.8,0.7S0,5.4,0,6.2v24.8c0,1.1,0.5,1.9,1.5,2.3c2.8,1.1,5.8,1.7,9.1,1.7
							c2.5,0,6-0.5,10.5-1.5c-0.2-0.8-0.2-1.7,0-2.6c-1.9,0.4-3.6,0.8-4.9,1c-2.1,0.4-4.1,0.5-6.1,0.5c-0.1-2.1-0.8-3.8-2.3-5.2
							s-3.2-2.1-5.2-2.2l0.1-10.6c1.9-0.1,3.6-0.8,5-2.1s2.2-3,2.3-5c1.7,0.1,3.6-0.1,5.6-0.4s3.6-0.6,4.8-0.8s2.9-0.7,5.2-1.3
							C29.1,4,31.8,3.4,33.8,3s4.1-0.5,6.2-0.5c0,2.1,0.7,3.9,2.2,5.3s3.2,2.2,5.3,2.3l0,0.8c0.1,0,0.2,0,0.3,0
							c0.9,0,1.6,0.2,2.2,0.5V4.1C50,2.9,49.5,2.1,48.5,1.7z M5.9,29c1,0.9,1.5,2,1.6,3.3c-1.8-0.3-3.5-0.7-5-1.3v-3.3
							C3.8,27.7,4.9,28.1,5.9,29z M5.9,10.5C5,11.4,3.9,11.9,2.6,12V6.2c1.5,0.5,3.2,0.8,4.9,1C7.4,8.5,6.9,9.6,5.9,10.5z M47.5,7.5
							C46.1,7.5,45,7,44,6.1s-1.5-2-1.5-3.4c1.8,0.3,3.5,0.7,5,1.3V7.5z"/>
						<path class="st1" d="M30.3,11.3c-1.5-1.7-3.2-2.6-5.3-2.6c-2.1,0-3.9,0.9-5.3,2.6s-2.2,3.8-2.2,6.2s0.7,4.5,2.2,6.2
							c0.3,0.3,0.5,0.6,0.8,0.8c0.1-1,0.4-1.9,0.9-2.7c-0.9-1.2-1.4-2.7-1.4-4.4c0-1.7,0.5-3.2,1.5-4.4s2.2-1.8,3.5-1.8
							s2.5,0.6,3.5,1.8s1.5,2.7,1.5,4.4c0,0.5-0.1,1-0.1,1.4c0.7-0.4,1.6-0.7,2.6-0.7c0-0.2,0-0.5,0-0.7
							C32.5,15.1,31.8,13,30.3,11.3z"/>
					</g>
				</g>
				<g>
					<g>
						<path id="path-2" class="st0" d="M46.2,10c4.2,0,7.5,0.7,10,2s3.8,2.7,3.8,4.3v15c0,1-0.5,2-1.6,3s-2.6,1.7-4.5,2.3
							s-4,0.9-6.3,1v1.2c0,1.7-1.3,3.2-4,4.4S37.6,45,33.8,45s-7-0.6-9.7-1.8s-4-2.7-4-4.4v-15c0-1.7,1.2-3.1,3.7-4.3
							s5.4-1.8,8.8-1.9v-1.3c0-1.8,1.4-3.3,4.1-4.5C39.2,10.6,42.4,10,46.2,10z M45,38.8v-3.9c-2.8,1.8-6.5,2.7-11.2,2.7
							s-8.5-0.9-11.2-2.7v3.9c0,0.4,0.4,0.9,1.2,1.4s2.1,1.1,3.9,1.6s3.9,0.7,6.1,0.7s4.3-0.2,6.1-0.7s3.1-1,3.9-1.6
							S45,39.2,45,38.8z M45,31.2v-3.9c-2.8,1.8-6.5,2.7-11.2,2.7s-8.5-0.9-11.2-2.7v3.9c0,0.4,0.4,0.9,1.2,1.4s2.1,1.1,3.9,1.6
							s3.9,0.7,6.1,0.7s4.3-0.2,6.1-0.7s3.1-1,3.9-1.6S45,31.7,45,31.2z M25.6,26.4c2.2,0.7,4.9,1.1,8.1,1.1s5.9-0.4,8.1-1.1
							s3.4-1.6,3.4-2.7s-1.1-1.9-3.4-2.7S36.9,20,33.8,20s-5.9,0.4-8.1,1.1s-3.4,1.6-3.4,2.7S23.4,25.7,25.6,26.4z M57.5,31.2v-3.9
							c-2.4,1.6-5.7,2.4-10,2.6v5c2-0.1,3.8-0.3,5.4-0.8s2.8-1,3.5-1.5S57.5,31.6,57.5,31.2z M57.5,23.8v-3.9
							c-2.5,1.6-5.9,2.5-10.3,2.7c0.2,0.5,0.3,0.9,0.3,1.2v3.7c2-0.1,3.8-0.4,5.4-0.9s2.8-1,3.5-1.5S57.5,24.1,57.5,23.8z M46.2,20
							c3.2,0,5.9-0.4,8.1-1.1s3.4-1.6,3.4-2.7s-1.1-1.9-3.4-2.7s-4.9-1.1-8.1-1.1s-5.9,0.4-8.1,1.1s-3.4,1.6-3.4,2.7
							c0,0.5,0.3,0.9,0.9,1.3c3.7,0.2,6.7,1,9,2.3C45.4,20,46,20,46.2,20z"/>
					</g>
					<g>
						<path class="st1" d="M46.2,10c4.2,0,7.5,0.7,10,2s3.8,2.7,3.8,4.3v15c0,1-0.5,2-1.6,3s-2.6,1.7-4.5,2.3s-4,0.9-6.3,1v1.2
							c0,1.7-1.3,3.2-4,4.4S37.6,45,33.8,45s-7-0.6-9.7-1.8s-4-2.7-4-4.4v-15c0-1.7,1.2-3.1,3.7-4.3s5.4-1.8,8.8-1.9v-1.3
							c0-1.8,1.4-3.3,4.1-4.5C39.2,10.6,42.4,10,46.2,10z M45,38.8v-3.9c-2.8,1.8-6.5,2.7-11.2,2.7s-8.5-0.9-11.2-2.7v3.9
							c0,0.4,0.4,0.9,1.2,1.4s2.1,1.1,3.9,1.6s3.9,0.7,6.1,0.7s4.3-0.2,6.1-0.7s3.1-1,3.9-1.6S45,39.2,45,38.8z M45,31.2v-3.9
							c-2.8,1.8-6.5,2.7-11.2,2.7s-8.5-0.9-11.2-2.7v3.9c0,0.4,0.4,0.9,1.2,1.4s2.1,1.1,3.9,1.6s3.9,0.7,6.1,0.7s4.3-0.2,6.1-0.7
							s3.1-1,3.9-1.6S45,31.7,45,31.2z M25.6,26.4c2.2,0.7,4.9,1.1,8.1,1.1s5.9-0.4,8.1-1.1s3.4-1.6,3.4-2.7s-1.1-1.9-3.4-2.7
							S36.9,20,33.8,20s-5.9,0.4-8.1,1.1s-3.4,1.6-3.4,2.7S23.4,25.7,25.6,26.4z M57.5,31.2v-3.9c-2.4,1.6-5.7,2.4-10,2.6v5
							c2-0.1,3.8-0.3,5.4-0.8s2.8-1,3.5-1.5S57.5,31.6,57.5,31.2z M57.5,23.8v-3.9c-2.5,1.6-5.9,2.5-10.3,2.7
							c0.2,0.5,0.3,0.9,0.3,1.2v3.7c2-0.1,3.8-0.4,5.4-0.9s2.8-1,3.5-1.5S57.5,24.1,57.5,23.8z M46.2,20c3.2,0,5.9-0.4,8.1-1.1
							s3.4-1.6,3.4-2.7s-1.1-1.9-3.4-2.7s-4.9-1.1-8.1-1.1s-5.9,0.4-8.1,1.1s-3.4,1.6-3.4,2.7c0,0.5,0.3,0.9,0.9,1.3
							c3.7,0.2,6.7,1,9,2.3C45.4,20,46,20,46.2,20z"/>
					</g>
				</g>
			</g>
		</g>
	</g>
</g>
</svg>
